<?xml version="1.0" encoding="UTF-8"?>
<svg width="462px" height="86px" viewBox="0 0 462 86" version="1.1" xmlns="http://www.w3.org/2000/svg" xmlns:xlink="http://www.w3.org/1999/xlink">
    <title>logo/tagline/color</title>
    <g id="brandbook" stroke="none" stroke-width="1" fill="none" fill-rule="evenodd">
        <g id="bg-1.2" transform="translate(-502.000000, -862.000000)">
            <g id="logo-with-tagline-h" transform="translate(500.000000, 840.000000)">
                <g id="logo/tagline/color" transform="translate(0.000000, 22.000000)">
                    <g id="Group" transform="translate(0.000000, 7.921053)">
                        <g id="e-logo" transform="translate(2.263415, 3.960526)">
                            <path d="M33.7560023,0.104366579 C35.2059513,0.169796727 36.6559003,0.126176629 38.1058493,0.107092835 C46.4198022,0.685059145 54.4328223,4.36823124 60.3639345,10.1887882 C65.1651808,14.8534125 68.694302,20.8675336 70.1196292,27.4160009 C70.7762099,30.4448716 70.9266763,33.5664349 70.7762099,36.6552831 C70.7297021,38.2065229 70.8719612,39.8640866 70.133308,41.2899186 C69.6299294,42.3095384 68.5794003,42.9365774 67.5015137,43.2010242 C65.605637,43.6699403 63.6386307,43.678119 61.6962462,43.6590352 C56.0576866,43.6575083 48.0506294,43.6572642 37.6750747,43.6583028 L37.6750747,43.658296 C34.2627538,43.6586376 31.4962443,40.8926818 31.4959027,37.4803609 C31.4959026,37.4798333 31.4959026,37.4793057 31.4959027,37.478778 C31.4959955,36.884396 31.4960139,36.3533378 31.4959579,35.8856037 C31.4958869,35.2920814 31.4958498,34.6024717 31.4958466,33.8167744 L31.4958464,33.8167744 C31.4958325,30.404487 34.2619987,27.6382554 37.6742861,27.6381887 C43.1303749,27.6380819 47.4261903,27.6339932 50.5617321,27.6259227 C48.7495694,23.284905 45.227014,19.5016793 40.6282135,18.0431322 C37.4328541,17.0780375 33.0731609,17.1913461 29.9050812,18.4336294 C25.1949922,20.2805731 22.4099971,23.2693653 20.451198,27.6368277 C18.3884404,32.4268598 18.8152178,39.0898439 20.451198,43.997105 C21.2883384,46.4480093 22.3944207,48.9179834 24.1671885,50.8781616 C27.3516049,54.7167303 32.497556,56.2925064 37.3535173,56.3361265 C39.4691662,56.3215864 41.2893475,56.3215864 42.8140613,56.3361265 C42.5602261,57.105714 42.4031865,57.6076698 42.3429425,57.8419936 C41.9921506,59.2064289 41.8782131,60.298411 41.8782131,62.2233052 C41.8782131,63.9067643 42.344932,66.3441306 43.4100312,68.5327004 C44.371465,70.508258 46.0263403,72.0932684 46.7030964,73.0828785 C38.7946719,74.0098056 29.3842692,74.0649704 21.715954,70.463586 C13.9081154,66.8758328 7.41617384,60.5400135 3.69554996,52.8110772 C0.420853794,46.2735149 -0.512037928,38.7217853 0.467361593,31.5190165 C1.70118613,22.4351309 6.373852,13.8337927 13.4703949,7.97779441 C19.1607608,3.28590754 26.3858841,0.496947468 33.7560023,0.104366579 Z" id="letter" fill="#02A7E1"></path>
                            <path d="M66.6323607,49.8698681 C69.7053692,51.2881315 72.0652706,54.0220604 73.1621261,57.2056089 C73.8450169,59.4295665 73.9658825,61.8074208 73.48242,64.0826773 C73.364576,64.4840157 73.2527753,64.885354 73.137953,65.2866924 C72.4943435,67.1093117 71.4186395,68.729753 70.1404855,70.1661218 C67.6234589,72.5077651 64.2180699,73.965257 60.7431832,73.7449735 C57.5734822,73.7329032 54.5941446,72.2603234 52.2795679,70.172157 C50.7052931,68.4279948 49.487572,66.3609514 48.9285684,64.0645718 C48.5780581,62.1966889 48.5720148,60.277507 48.9285684,58.409624 C49.0494341,58.0082856 49.1582131,57.6099649 49.2639705,57.2086265 C50.3396746,54.0612889 52.6633162,51.3907292 55.6517188,49.9181494 C59.0691943,48.2826202 63.2118636,48.2101982 66.6323607,49.8698681 Z" id="dot" fill="#F69414"></path>
                        </g>
                    </g>
                    <path d="M112.531635,85.5751676 C115.992074,85.5751676 119.269966,85.0288274 122.365313,83.936147 C125.46066,82.8434666 128.309966,81.3944773 130.913232,79.5891793 C131.452933,79.2407884 131.952951,78.8369717 132.413284,78.3777292 C132.873618,77.9184868 133.103785,77.3246387 133.103785,76.5961851 C133.103785,76.4061537 133.032354,76.1527786 132.889491,75.8360596 C132.746629,75.5193406 132.59583,75.2342936 132.437095,74.9809184 L132.437095,74.9809184 L127.103574,66.9520928 C126.627367,66.2236392 126.167034,65.7485607 125.722573,65.5268574 C125.278113,65.3051542 124.786033,65.1943025 124.246331,65.1943025 C124.024101,65.1943025 123.714567,65.2338924 123.317727,65.3130721 C122.920888,65.3922519 122.500238,65.5902012 122.055778,65.9069202 C120.627157,66.888749 119.119167,67.6963823 117.53181,68.3298202 C115.944453,68.9632582 114.245981,69.2799771 112.436393,69.2799771 C110.436323,69.2799771 108.594989,68.8919964 106.91239,68.1160349 C105.229791,67.3400735 103.793233,66.2869829 102.602715,64.9567633 C101.412197,63.6265437 100.483593,62.0508669 99.8169031,60.2297328 C99.1502131,58.4085988 98.816868,56.4528592 98.816868,54.3625141 C98.816868,52.3355128 99.1502131,50.4035271 99.8169031,48.5665571 C100.483593,46.7295872 101.412197,45.1143205 102.602715,43.720757 C103.793233,42.3271936 105.229791,41.2265952 106.91239,40.4189619 C108.594989,39.6113285 110.436323,39.2075119 112.436393,39.2075119 C114.245981,39.2075119 115.95239,39.5004769 117.55562,40.086407 C119.158851,40.672337 120.658904,41.4245446 122.055778,42.3430296 C122.563733,42.6914204 123.024066,42.9368776 123.436779,43.0794011 C123.849492,43.2219247 124.198711,43.2931864 124.484435,43.2931864 C125.754321,43.2931864 126.833724,42.517225 127.722644,40.9653021 L127.722644,40.9653021 L131.960888,33.7916176 C132.341853,33.1898516 132.532336,32.6039215 132.532336,32.0338274 C132.532336,31.2103581 132.32598,30.5214944 131.913267,29.9672362 C131.500554,29.412978 130.944979,28.9299816 130.246542,28.518247 L130.246542,28.518247 L130.389404,28.6607705 C127.817885,26.8554724 125.06382,25.4935809 122.127209,24.5750959 C119.190598,23.6566109 115.992074,23.1973684 112.531635,23.1973684 C109.674392,23.1973684 106.920327,23.5615952 104.26944,24.2900488 C101.618554,25.0185024 99.1502131,26.0478391 96.8644186,27.3780587 C94.5786242,28.7082783 92.4833126,30.315627 90.5784839,32.2001049 C88.6736552,34.0845827 87.0545508,36.1749278 85.7211707,38.4711403 C84.3877906,40.7673527 83.3480716,43.2615145 82.6020137,45.9536257 C81.8559558,48.6457369 81.4829268,51.4486997 81.4829268,54.3625141 C81.4829268,57.2763285 81.8559558,60.0713734 82.6020137,62.7476486 C83.3480716,65.4239238 84.3877906,67.9180856 85.7211707,70.230134 C87.0545508,72.5421824 88.6736552,74.6404455 90.5784839,76.5249233 C92.4833126,78.4094011 94.5786242,80.0246678 96.8644186,81.3707234 C99.1502131,82.716779 101.618554,83.7540336 104.26944,84.4824872 C106.920327,85.2109408 109.674392,85.5751676 112.531635,85.5751676 Z M154.814,9.05263158 L155.006388,9.06287944 C155.265445,9.09020706 155.534661,9.17218991 155.814035,9.30882801 C156.163254,9.47962563 156.488662,9.720295 156.79026,10.0308361 C157.091858,10.3413773 157.345835,10.7140266 157.552192,11.1487842 C157.758548,11.5835418 157.861726,12.0648805 157.861726,12.5928004 L157.861726,12.5928004 L157.861726,82.1850672 L157.856503,82.4335397 C157.811231,83.4912016 157.47169,84.3011831 156.837881,84.8634844 C156.155317,85.4690396 155.274334,85.7718172 154.194931,85.7718172 L154.194931,85.7718172 L143.146925,85.7718172 L142.904165,85.7677802 C141.794002,85.7301012 141.001876,85.4286693 140.527785,84.8634844 C140.019831,84.2579292 139.765854,83.3651235 139.765854,82.1850672 L139.765854,82.1850672 L139.765854,12.5928004 L139.772151,12.3256324 C139.81413,11.4479046 140.066008,10.6984996 140.527785,10.0774173 C141.035739,9.39422682 141.908786,9.05263158 143.146925,9.05263158 L143.146925,9.05263158 L154.814,9.05263158 Z M194.60839,23.1973684 C197.238478,23.1973684 199.789346,23.5458947 202.260995,24.2429474 C204.732644,24.94 207.053776,25.9222105 209.22439,27.1895789 C211.395005,28.4569474 213.383415,29.9777895 215.18962,31.7521053 C216.995824,33.5264211 218.548527,35.4670789 219.847727,37.5740789 C221.146927,39.6810789 222.153015,41.9306579 222.86599,44.3228158 C223.578966,46.7149737 223.935454,49.1784211 223.935454,51.7131579 C223.935454,53.3607368 223.911688,54.7073158 223.864156,55.7528947 C223.816624,56.7984737 223.571044,57.6301842 223.127415,58.2480263 C222.683785,58.8658684 221.947044,59.2936053 220.91719,59.5312368 C219.887337,59.7688684 218.374244,59.8876842 216.377912,59.8876842 L216.377912,59.8876842 L182.155083,59.8876842 L182.227957,60.3171184 C182.565286,62.1559342 183.182673,63.7078947 184.080117,64.973 C185.046595,66.3354211 186.16359,67.4206053 187.431102,68.2285526 C188.698615,69.0365 190.045346,69.6147368 191.471298,69.9632632 C192.897249,70.3117895 194.24398,70.4860526 195.511493,70.4860526 C196.652254,70.4860526 197.824702,70.3672368 199.028839,70.1296053 C200.232976,69.8919737 201.397502,69.5751316 202.52242,69.1790789 C203.647337,68.7830263 204.67719,68.3236053 205.61198,67.8008158 C206.546771,67.2780263 207.299356,66.7314737 207.869737,66.1611579 C208.376741,65.7492632 208.812449,65.4403421 209.176859,65.2343947 C209.541268,65.0284474 209.929444,64.9254737 210.341385,64.9254737 C210.753327,64.9254737 211.17319,65.0680526 211.600976,65.3532105 C212.028761,65.6383684 212.512,66.0502632 213.050693,66.5888947 L213.050693,66.5888947 L218.089054,72.2920526 L218.230679,72.4661541 C218.498408,72.8095075 218.673015,73.1237632 218.754498,73.4089211 C218.849561,73.7416053 218.897093,74.0822105 218.897093,74.4307368 C218.897093,75.0644211 218.72281,75.6109737 218.374244,76.0703947 C218.025678,76.5298158 217.613737,76.9337895 217.13842,77.2823158 C214.349893,79.8487368 211.2128,81.8527632 207.727141,83.2943947 C204.241483,84.7360263 200.549854,85.4568421 196.652254,85.4568421 C192.311024,85.4568421 188.207454,84.6647368 184.341541,83.0805263 C180.475629,81.4963158 177.085034,79.3021842 174.169756,76.4981316 C171.254478,73.6940789 168.941268,70.391 167.230127,66.5888947 C165.518985,62.7867895 164.663415,58.652 164.663415,54.1845263 C164.663415,51.3963158 165.004059,48.6952368 165.685346,46.0812895 C166.366634,43.4673421 167.333112,41.0197368 168.58478,38.7384737 C169.836449,36.4572105 171.357463,34.3581316 173.147824,32.4412368 C174.938185,30.5243421 176.942439,28.8846842 179.160585,27.5222632 C181.378732,26.1598421 183.787005,25.0984211 186.385405,24.338 C188.983805,23.5775789 191.7248,23.1973684 194.60839,23.1973684 Z M194.275668,37.6928947 C193.039844,37.6928947 191.843629,37.9384474 190.687024,38.4295526 C189.53042,38.9206579 188.445112,39.5781053 187.431102,40.4018947 C186.417093,41.2256842 185.506068,42.1603684 184.698029,43.2059474 C183.88999,44.2515263 183.232468,45.3129474 182.725463,46.3902105 L182.725463,46.3902105 L207.014166,46.3902105 C206.348722,45.1545263 205.627824,44.0138947 204.851473,42.9683158 C204.075122,41.9227368 203.187863,41.0038947 202.189698,40.2117895 C201.191532,39.4196842 200.050771,38.8018421 198.767415,38.3582632 C197.484059,37.9146842 195.98681,37.6928947 194.275668,37.6928947 Z M261.917001,85.5751676 C265.377439,85.5751676 268.655332,85.0288274 271.750679,83.936147 C274.846025,82.8434666 277.695332,81.3944773 280.298598,79.5891793 C280.838299,79.2407884 281.338317,78.8369717 281.79865,78.3777292 C282.258984,77.9184868 282.489151,77.3246387 282.489151,76.5961851 C282.489151,76.4061537 282.41772,76.1527786 282.274857,75.8360596 C282.131995,75.5193406 281.981196,75.2342936 281.822461,74.9809184 L281.822461,74.9809184 L276.48894,66.9520928 C276.012733,66.2236392 275.552399,65.7485607 275.107939,65.5268574 C274.663479,65.3051542 274.171399,65.1943025 273.631697,65.1943025 C273.409467,65.1943025 273.099932,65.2338924 272.703093,65.3130721 C272.306254,65.3922519 271.885604,65.5902012 271.441144,65.9069202 C270.012523,66.888749 268.504533,67.6963823 266.917176,68.3298202 C265.329819,68.9632582 263.631346,69.2799771 261.821759,69.2799771 C259.821689,69.2799771 257.980355,68.8919964 256.297756,68.1160349 C254.615157,67.3400735 253.178599,66.2869829 251.988081,64.9567633 C250.797563,63.6265437 249.868959,62.0508669 249.202269,60.2297328 C248.535579,58.4085988 248.202234,56.4528592 248.202234,54.3625141 C248.202234,52.3355128 248.535579,50.4035271 249.202269,48.5665571 C249.868959,46.7295872 250.797563,45.1143205 251.988081,43.720757 C253.178599,42.3271936 254.615157,41.2265952 256.297756,40.4189619 C257.980355,39.6113285 259.821689,39.2075119 261.821759,39.2075119 C263.631346,39.2075119 265.337755,39.5004769 266.940986,40.086407 C268.544217,40.672337 270.04427,41.4245446 271.441144,42.3430296 C271.949098,42.6914204 272.409432,42.9368776 272.822145,43.0794011 C273.234858,43.2219247 273.584076,43.2931864 273.869801,43.2931864 C275.139686,43.2931864 276.219089,42.517225 277.108009,40.9653021 L277.108009,40.9653021 L281.346253,33.7916176 C281.727219,33.1898516 281.917702,32.6039215 281.917702,32.0338274 C281.917702,31.2103581 281.711346,30.5214944 281.298633,29.9672362 C280.88592,29.412978 280.330345,28.9299816 279.631908,28.518247 L279.631908,28.518247 L279.77477,28.6607705 C277.203251,26.8554724 274.449186,25.4935809 271.512575,24.5750959 C268.575964,23.6566109 265.377439,23.1973684 261.917001,23.1973684 C259.059758,23.1973684 256.305693,23.5615952 253.654806,24.2900488 C251.003919,25.0185024 248.535579,26.0478391 246.249784,27.3780587 C243.96399,28.7082783 241.868678,30.315627 239.96385,32.2001049 C238.059021,34.0845827 236.439917,36.1749278 235.106537,38.4711403 C233.773156,40.7673527 232.733437,43.2615145 231.98738,45.9536257 C231.241322,48.6457369 230.868293,51.4486997 230.868293,54.3625141 C230.868293,57.2763285 231.241322,60.0713734 231.98738,62.7476486 C232.733437,65.4239238 233.773156,67.9180856 235.106537,70.230134 C236.439917,72.5421824 238.059021,74.6404455 239.96385,76.5249233 C241.868678,78.4094011 243.96399,80.0246678 246.249784,81.3707234 C248.535579,82.716779 251.003919,83.7540336 253.654806,84.4824872 C256.305693,85.2109408 259.059758,85.5751676 261.917001,85.5751676 Z M312.199647,85.6395808 C313.437785,85.6395808 314.406073,85.3307798 315.104511,84.7131778 C315.802948,84.0955759 316.152166,83.1850089 316.152166,81.9814768 L316.104546,41.8848565 L322.628584,41.8848565 C323.644493,41.8848565 324.469918,41.5760555 325.104861,40.9584535 C325.739804,40.3408515 326.057276,39.3669407 326.057276,38.0367211 L326.057276,28.8677072 C326.057276,27.6641751 325.739804,26.7615261 325.104861,26.1597601 C324.469918,25.5579941 323.644493,25.257111 322.628584,25.257111 L316.104546,25.257111 L316.152166,12.1924539 C316.152166,11.0839376 315.953747,10.1892065 315.556907,9.50826075 C315.160068,8.82731499 314.374326,8.48684211 313.199682,8.48684211 L312.794906,8.48684211 C312.652044,8.48684211 312.501245,8.50267805 312.342509,8.53434995 L301.532606,12.2874696 C300.326215,12.7308762 299.397611,13.1980366 298.746794,13.688951 C298.095978,14.1798654 297.770569,14.916237 297.770569,15.8980658 L297.722949,25.257111 L292.818015,25.257111 C290.373485,25.257111 289.15122,26.4606431 289.15122,28.8677072 L289.15122,38.0367211 C289.15122,40.6021447 290.373485,41.8848565 292.818015,41.8848565 L297.722949,41.8848565 L297.770569,81.9814768 C297.770569,84.4202128 298.992834,85.6395808 301.437365,85.6395808 L312.199647,85.6395808 Z M346.865808,17.0994488 C347.541053,17.0994488 348.381231,16.6460298 348.841564,16.2418466 C349.301898,15.8376633 349.6908,15.3831623 350.008272,14.8783434 C350.325743,14.3735246 350.571784,13.8738137 350.746393,13.3792109 C350.921002,12.884608 351.008307,12.4472752 351.008307,12.0672124 L351.008307,2.80318285 C351.008307,1.47296322 350.667025,0.630789842 349.984461,0.276662717 C349.301898,-0.0774644078 348.405041,-0.0916305997 347.293891,0.234164142 L336.245884,3.47349471 C335.039493,3.82721472 334.150573,4.3649796 333.579124,5.08678936 C333.007676,5.80859912 332.721951,6.83461382 332.721951,8.16483345 L332.721951,13.9417167 C332.721951,16.570484 333.944244,17.0994488 336.245884,17.0994488 L346.865808,17.0994488 Z M347.151029,85.7954882 C348.389167,85.7954882 349.341582,85.4866872 350.008272,84.8690853 C350.674962,84.2514833 351.008307,83.3409163 351.008307,82.1373842 L351.008307,82.1373842 L351.008307,29.1661381 C351.008307,28.596044 350.873381,28.0892937 350.603531,27.6458871 C350.33368,27.2024806 350.008272,26.8144999 349.627306,26.481945 C349.24634,26.1493901 348.833627,25.8960149 348.389167,25.7218195 C347.944707,25.547624 347.531994,25.4605263 347.151029,25.4605263 L347.151029,25.4605263 L336.245884,25.4605263 C335.039493,25.4605263 334.150573,25.8247531 333.579124,26.5532067 C333.007676,27.2816603 332.721951,28.1526375 332.721951,29.1661381 L332.721951,29.1661381 L332.721951,82.1373842 C332.721951,84.5761202 333.896596,85.7954882 336.245884,85.7954882 L336.245884,85.7954882 L347.151029,85.7954882 Z M389.234074,85.5751676 C392.694513,85.5751676 395.972405,85.0288274 399.067752,83.936147 C402.163099,82.8434666 405.012405,81.3944773 407.615671,79.5891793 C408.155372,79.2407884 408.65539,78.8369717 409.115723,78.3777292 C409.576057,77.9184868 409.806224,77.3246387 409.806224,76.5961851 C409.806224,76.4061537 409.734793,76.1527786 409.591931,75.8360596 C409.449068,75.5193406 409.298269,75.2342936 409.139534,74.9809184 L409.139534,74.9809184 L403.806013,66.9520928 C403.329806,66.2236392 402.869473,65.7485607 402.425013,65.5268574 C401.980552,65.3051542 401.488472,65.1943025 400.94877,65.1943025 C400.72654,65.1943025 400.417006,65.2338924 400.020166,65.3130721 C399.623327,65.3922519 399.202677,65.5902012 398.758217,65.9069202 C397.329596,66.888749 395.821606,67.6963823 394.234249,68.3298202 C392.646892,68.9632582 390.94842,69.2799771 389.138832,69.2799771 C387.138762,69.2799771 385.297428,68.8919964 383.614829,68.1160349 C381.93223,67.3400735 380.495672,66.2869829 379.305154,64.9567633 C378.114636,63.6265437 377.186032,62.0508669 376.519342,60.2297328 C375.852652,58.4085988 375.519307,56.4528592 375.519307,54.3625141 C375.519307,52.3355128 375.852652,50.4035271 376.519342,48.5665571 C377.186032,46.7295872 378.114636,45.1143205 379.305154,43.720757 C380.495672,42.3271936 381.93223,41.2265952 383.614829,40.4189619 C385.297428,39.6113285 387.138762,39.2075119 389.138832,39.2075119 C390.94842,39.2075119 392.654829,39.5004769 394.258059,40.086407 C395.86129,40.672337 397.361343,41.4245446 398.758217,42.3430296 C399.266172,42.6914204 399.726505,42.9368776 400.139218,43.0794011 C400.551931,43.2219247 400.90115,43.2931864 401.186874,43.2931864 C402.45676,43.2931864 403.536163,42.517225 404.425083,40.9653021 L404.425083,40.9653021 L408.663327,33.7916176 C409.044292,33.1898516 409.234775,32.6039215 409.234775,32.0338274 C409.234775,31.2103581 409.028419,30.5214944 408.615706,29.9672362 C408.202993,29.412978 407.647418,28.9299816 406.948981,28.518247 L406.948981,28.518247 L407.091843,28.6607705 C404.520324,26.8554724 401.766259,25.4935809 398.829648,24.5750959 C395.893037,23.6566109 392.694513,23.1973684 389.234074,23.1973684 C386.376831,23.1973684 383.622766,23.5615952 380.971879,24.2900488 C378.320993,25.0185024 375.852652,26.0478391 373.566858,27.3780587 C371.281063,28.7082783 369.185752,30.315627 367.280923,32.2001049 C365.376094,34.0845827 363.75699,36.1749278 362.42361,38.4711403 C361.09023,40.7673527 360.050511,43.2615145 359.304453,45.9536257 C358.558395,48.6457369 358.185366,51.4486997 358.185366,54.3625141 C358.185366,57.2763285 358.558395,60.0713734 359.304453,62.7476486 C360.050511,65.4239238 361.09023,67.9180856 362.42361,70.230134 C363.75699,72.5421824 365.376094,74.6404455 367.280923,76.5249233 C369.185752,78.4094011 371.281063,80.0246678 373.566858,81.3707234 C375.852652,82.716779 378.320993,83.7540336 380.971879,84.4824872 C383.622766,85.2109408 386.376831,85.5751676 389.234074,85.5751676 Z M439.399652,85.5751676 C442.860091,85.5751676 446.090363,85.1347797 449.090468,84.2540039 C452.090574,83.3732282 454.685903,82.0992489 456.876456,80.4320662 C459.067009,78.7648834 460.789291,76.7044972 462.043304,74.2509076 C463.297316,71.7973179 463.924322,69.0134373 463.924322,65.8992658 C463.924322,62.7850942 463.440178,60.1427669 462.47189,57.9722837 C461.503602,55.8018005 460.146412,53.9380161 458.400319,52.3809303 C456.654226,50.8238445 454.590661,49.5105449 452.209625,48.4410315 C449.82859,47.371518 447.20945,46.3806453 444.352207,45.4684132 C443.590276,45.2482193 442.756913,45.0516175 441.852119,44.878608 C440.947326,44.7055985 440.090153,44.4775405 439.280601,44.194434 C438.471048,43.9113275 437.788485,43.5417162 437.23291,43.0856002 C436.677335,42.6294841 436.3678,41.9924945 436.304306,41.1746313 C436.240811,40.0736615 436.669398,39.2557983 437.590065,38.7210416 C438.510732,38.1862849 439.748871,37.9189065 441.304481,37.9189065 C442.54262,37.9189065 443.876,38.1312364 445.304621,38.5558961 C446.733243,38.9805559 448.003129,39.8062832 449.114279,41.033078 C449.368256,41.3476408 449.65398,41.6150192 449.971452,41.8352131 C450.288923,42.0554071 450.622268,42.2126884 450.971487,42.3070573 C451.320705,42.4014261 451.685798,42.4092902 452.066763,42.3306495 C452.447729,42.2520088 452.828695,42.0554071 453.209661,41.7408443 C454.416052,40.5455057 455.58276,39.4602641 456.709783,38.4851195 C457.836807,37.5099749 459.019388,36.5191021 460.257527,35.5125012 C460.987711,34.8833757 461.344866,34.2935705 461.328993,33.7430856 C461.313119,33.1926007 461.035332,32.6027955 460.49563,31.97367 C459.003514,30.4323124 457.503462,29.1032846 455.995473,27.9865867 C454.487483,26.8698889 452.93981,25.9576568 451.352453,25.2498906 C449.765095,24.5421243 448.09837,24.0230957 446.352277,23.6928048 C444.606184,23.3625139 442.733103,23.1973684 440.733033,23.1973684 C437.431329,23.1973684 434.431224,23.6141641 431.732717,24.4477555 C429.03421,25.2813468 426.716668,26.4609573 424.780092,27.9865867 C422.843516,29.5122162 421.3514,31.3445444 420.303745,33.4835713 C419.256089,35.6225982 418.732261,37.9975472 418.732261,40.6084183 C418.732261,42.841814 419.017985,44.9651128 419.589434,46.9783146 C420.160882,48.9915163 421.168854,50.871029 422.613349,52.6168524 C424.057845,54.3626758 426.018231,55.9433538 428.494508,57.3588863 C430.970785,58.7744188 434.113753,59.9854855 437.92341,60.9920864 C439.129802,61.3695617 440.217141,61.6998526 441.185429,61.9829591 C442.153717,62.2660656 442.971206,62.5884925 443.637896,62.9502397 C444.304586,63.3119869 444.812541,63.7523748 445.161759,64.2714034 C445.510978,64.790432 445.685587,65.4903341 445.685587,66.3711099 C445.685587,67.3462545 445.376052,68.1012052 444.756983,68.6359619 C444.137914,69.1707187 443.399793,69.5560581 442.54262,69.7919802 C441.685447,70.0279022 440.78859,70.1694555 439.852049,70.2166399 C438.915508,70.2638243 438.14564,70.2874165 437.542444,70.2874165 C437.288467,70.2874165 436.81226,70.2087758 436.113823,70.0514944 C435.415386,69.8942131 434.605834,69.6346988 433.685166,69.2729516 C432.764499,68.9112044 431.804148,68.4393602 430.804113,67.8574191 C429.804078,67.2754779 428.875474,66.5598476 428.018301,65.7105281 C427.097634,64.8297523 426.343639,64.2949956 425.756317,64.1062579 C425.168995,63.9175202 424.494368,64.1377142 423.732436,64.7668397 L423.732436,64.7668397 L417.589364,70.8536295 C417.208398,71.136736 416.93061,71.474891 416.756001,71.8680945 C416.581392,72.261298 416.48615,72.6938218 416.470277,73.165666 C416.454403,73.6375101 416.533771,74.1172184 416.70838,74.6047907 C416.88299,75.092363 417.144904,75.5563431 417.494122,75.996731 C418.827502,77.7268263 420.351365,79.1974073 422.065711,80.408474 C423.780057,81.6195407 425.589644,82.6104134 427.494473,83.3810922 C429.399302,84.151771 431.367625,84.71012 433.399442,85.056139 C435.431259,85.4021581 437.431329,85.5751676 439.399652,85.5751676 Z" id="logotype" fill="#083273"></path>
                </g>
            </g>
        </g>
    </g>
</svg>